<svg preserveAspectRatio="xMidYMid meet" data-bbox="55.5 20 88.999 160.001" viewBox="55.5 20 88.999 160.001" height="200" width="200" xmlns="http://www.w3.org/2000/svg" data-type="color" role="presentation" aria-hidden="true" aria-labelledby="svgcid-brqxp1-vxuhx2"><defs><style>#comp-jzcfrw6v svg [data-color="1"] {fill: #0B0B7F;}</style></defs><title id="svgcid-brqxp1-vxuhx2"></title>
    <g>
        <path d="M112.124 107.484c.005-4.611-.073-8.397-.3-16.496-.49-17.438-.45-24.738.573-33.448 2.538-21.597 11.646-37.043 20.663-36.533 4.196.151 7.797 4.38 9.455 11.358 1.845 7.758 1.126 17.931-2.425 28.845-4.884 15.01-14.541 32.811-28.039 52.027.048-1.86.071-3.776.073-5.753zm-56.478 71.669a.496.496 0 0 0 .001.703.502.502 0 0 0 .707-.001c21.6-21.536 40.146-43.157 54.59-63.328-.44 10.603-1.714 19.429-4.185 27.684a.501.501 0 0 0 .959.283c2.615-8.737 3.902-18.088 4.283-29.451 14.008-19.769 24.022-38.098 29.042-53.528 3.605-11.079 4.336-21.433 2.447-29.379-1.751-7.365-5.657-11.952-10.382-12.122-9.734-.551-19.11 15.35-21.703 37.411-1.03 8.774-1.071 16.103-.579 33.591.227 8.089.305 11.868.3 16.467-.003 2.503-.04 4.91-.114 7.232-14.532 20.47-33.359 42.496-55.366 64.438z" fill="#0B0B7F" data-color="1"></path>
    </g>
</svg>