<svg preserveAspectRatio="xMidYMid meet" data-bbox="20 24.5 160 151" viewBox="20 24.5 160 151" height="200" width="200" xmlns="http://www.w3.org/2000/svg" data-type="color" role="img" aria-labelledby="svgcid-b3inzs-6d672k"><defs><style>#comp-jz818tu3 svg [data-color="1"] {fill: #0B0B7F;}</style></defs><title id="svgcid-b3inzs-6d672k">Home Page</title>
    <g>
        <path d="M20.856 93.28c6.363-22.333 28.389-44.059 57.767-53.926 28.389-6.777 44.214-8.745 57.615-5.62 14.13 3.294 26.943 11.12 34.919 21.793 8.997 12.04 11.407 26.873 5.944 43.079-11.25 31.743-24.045 49.758-39.894 57.616-13.242 6.566-27.485 6.303-50.53.93-39.073-9.11-72.503-40.425-65.821-63.872zm1.919.544c-6.28 22.039 26.241 52.503 64.357 61.389 22.63 5.276 36.47 5.532 49.188-.774 15.301-7.586 27.808-25.195 38.896-56.483 5.249-15.571 2.949-29.722-5.658-41.24-7.681-10.279-20.083-17.853-33.774-21.045-12.991-3.029-28.614-1.086-56.611 5.593-28.689 9.641-50.221 30.88-56.398 52.56z" fill="#0B0B7F" data-color="1"></path>
        <path d="M101.78 175.5c40.578 0 73.472-32.877 73.472-73.433 0-40.863-35.603-77.567-75.882-77.567-39.449 0-71.061 35.729-71.061 77.567-.001 40.556 32.893 73.433 73.471 73.433zm0-1.991c-39.475 0-71.477-31.985-71.477-71.442 0-40.79 30.778-75.577 69.066-75.577 39.163 0 73.887 35.799 73.887 75.577.001 39.457-32.001 71.442-71.476 71.442z" fill="#0B0B7F" data-color="1"></path>
    </g>
</svg>